Land_normalized_Motion_pl04
version=1
nRows=23
nColumns=43
inDegrees=yes
endheader
time		pelvis_tilt		pelvis_list		pelvis_rotation		pelvis_tx		pelvis_ty		pelvis_tz		hip_flexion_r		hip_adduction_r		hip_rotation_r		knee_angle_r		ankle_angle_r		subtalar_angle_r		mtp_angle_r		hip_flexion_l		hip_adduction_l		hip_rotation_l		knee_angle_l		ankle_angle_l		subtalar_angle_l		mtp_angle_l		lumbar_extension		lumbar_bending		lumbar_rotation		neck_flexion		neck_lateral_bending		neck_rotation		arm_flex_r		arm_add_r		arm_rot_r		elbow_flex_r		pro_sup_r		wrist_flex_r		wrist_dev_r		hand_finger_flex_r		arm_flex_l		arm_add_l		arm_rot_l		elbow_flex_l		pro_sup_l		wrist_flex_l		wrist_dev_l		hand_finger_flex_l		
3.108914		-0.986744		2.809183		91.662839		-0.015458		0.509414		0.470739		81.396212		-0.463076		3.741588		-117.011130		5.785732		3.526735		30.111847		78.865059		-6.630434		1.799949		-119.820215		20.458276		3.226291		23.237239		-50.957111		-2.808757		3.260361		10.551860		5.445778		-6.495590		27.276590		-24.542273		-9.239962		52.199246		121.432161		-15.660078		-17.898927		-33.176263		24.305286		-28.004458		-3.475857		71.204973		138.637443		-32.571659		-14.070904		-25.234320		
3.111742		-0.955675		2.697237		91.696149		-0.014921		0.504701		0.470187		82.158225		-0.524645		3.707208		-117.802361		5.485770		3.718082		30.133109		79.595461		-6.697265		1.955682		-120.579525		20.583609		3.252481		23.276585		-51.188595		-2.819516		3.076153		10.973360		5.324940		-6.372927		29.624902		-24.555950		-8.329066		52.733518		121.499055		-15.266669		-18.021132		-33.078639		26.946050		-28.249440		-2.281725		71.365251		138.841013		-31.823263		-14.077197		-24.958619		
3.114571		-0.983231		2.670064		92.006707		-0.015197		0.500202		0.469946		82.823851		-0.961423		3.729836		-118.591801		5.303881		3.846507		30.195595		80.261553		-6.365325		2.128099		-121.255479		20.596163		3.392633		23.363582		-51.464449		-2.676663		2.966067		10.828107		5.494366		-6.424506		31.762480		-25.011641		-7.218812		53.327368		121.228345		-14.935405		-18.060110		-33.205482		29.975903		-28.388536		-0.430286		71.435061		138.749217		-30.731602		-13.624146		-24.647435		
3.117399		-0.954559		2.539563		92.087096		-0.014893		0.495793		0.469550		83.603779		-1.096202		3.659854		-119.323381		5.295108		4.007832		30.232985		80.972016		-6.373016		2.280077		-121.895655		20.682185		3.408200		23.422950		-51.697885		-2.646340		2.845439		11.248509		5.403229		-6.370478		34.100300		-25.085180		-6.301916		53.814305		121.106805		-14.612713		-18.071155		-33.252528		32.734535		-28.578834		0.975585		71.567499		138.828320		-29.916018		-13.564040		-24.430616		
3.120227		-0.949250		2.474020		92.266710		-0.014754		0.491492		0.469208		84.305765		-1.344642		3.582118		-120.064568		5.359174		4.160197		30.264279		81.646178		-6.278538		2.399348		-122.531978		20.722373		3.448471		23.478521		-51.971936		-2.551724		2.651574		11.569201		5.385530		-6.271537		36.424067		-25.261016		-5.187220		54.294989		121.048382		-14.249739		-18.071409		-33.301458		35.537315		-28.754923		2.426647		71.614803		138.897771		-29.050800		-13.553346		-24.208582		
3.123056		-0.956154		2.440386		92.494343		-0.014806		0.487286		0.468930		84.975649		-1.668553		3.503846		-120.800549		5.539420		4.336135		30.297662		82.276797		-6.143993		2.483106		-123.159286		20.747582		3.495494		23.544329		-52.260995		-2.431982		2.474096		11.790747		5.417814		-6.194804		38.736903		-25.501824		-4.024689		54.722268		120.904006		-13.932945		-17.985775		-33.429816		38.406260		-28.853831		3.972614		71.635752		138.893450		-28.190437		-13.526397		-24.019674		
3.125884		-0.963361		2.420633		92.697642		-0.014812		0.483037		0.468549		85.628763		-1.984535		3.403409		-121.547882		5.758588		4.518869		30.329160		82.903381		-6.139488		2.491751		-123.822699		20.795117		3.533580		23.616400		-52.529719		-2.324013		2.298422		12.009312		5.463169		-6.142333		41.013282		-25.695616		-2.870293		55.151085		120.711391		-13.663065		-17.872654		-33.595377		41.228846		-28.885692		5.458217		71.599341		138.856789		-27.420920		-13.514265		-23.880834		
3.128712		-1.053311		2.536183		92.898898		-0.014939		0.479021		0.468247		86.153638		-2.341026		3.387760		-122.304963		6.085484		4.795421		30.413283		83.354830		-6.146311		2.350305		-124.468141		20.866569		3.593797		23.826798		-52.911743		-2.300477		2.275536		12.059369		5.712451		-6.326737		43.162267		-26.183140		-1.440750		55.654283		119.588079		-13.768053		-17.457949		-34.439623		44.403839		-28.764463		7.571105		71.241931		138.212641		-26.918041		-13.297918		-24.173744		
3.131540		-1.155121		2.568495		92.987631		-0.014863		0.474933		0.467999		86.777645		-2.593059		3.381907		-123.031461		6.264714		5.043363		30.501652		83.845986		-6.245946		2.255457		-125.045981		20.969464		3.648075		24.051042		-53.236405		-2.387916		2.310886		12.223711		5.879154		-6.476823		45.342089		-26.745340		0.033157		56.090679		118.503070		-13.757512		-17.120797		-35.235768		47.550355		-28.723406		9.681448		70.964831		137.664944		-26.473468		-13.259445		-24.498245		
3.134369		-1.190915		2.539943		92.993198		-0.014700		0.470615		0.467648		87.439654		-2.778307		3.330533		-123.741915		6.149394		5.064644		30.540202		84.444845		-6.540165		2.141285		-125.695981		21.105848		3.784238		24.170178		-53.447778		-2.441671		2.198591		12.338718		5.968086		-6.366340		47.703145		-27.014045		1.372459		56.314154		118.356339		-13.306186		-17.167199		-35.321779		50.293393		-28.787488		11.162155		70.876693		137.805233		-25.959616		-13.551290		-24.503562		
3.137197		-1.267264		2.556294		92.941655		-0.014399		0.466542		0.467313		88.045493		-2.914730		3.318443		-124.426651		6.069811		5.129007		30.586731		84.935087		-6.909829		1.986100		-126.317364		21.305735		3.995950		24.325391		-53.695477		-2.585692		2.124868		12.408821		6.127243		-6.302291		50.095801		-27.258069		2.757530		56.394053		118.014491		-13.021906		-17.169381		-35.547395		53.171913		-28.762833		12.818886		70.582952		137.843671		-25.601332		-13.704039		-24.639912		
3.140025		-1.322067		2.454810		92.781272		-0.013951		0.462271		0.466850		88.816400		-2.946884		3.309198		-125.105380		6.089705		5.239615		30.611370		85.523079		-7.337698		1.961471		-126.888650		21.519918		4.136935		24.422127		-53.813384		-2.788586		2.116592		12.809568		6.108227		-6.214712		52.480225		-27.256350		3.756886		56.321196		117.868045		-12.742820		-17.133354		-35.609359		55.835728		-28.543070		14.034848		70.351410		137.970581		-25.249873		-13.803528		-24.664183		
3.142854		-1.331756		2.405598		92.693379		-0.013759		0.458003		0.466274		89.490005		-3.094746		3.277831		-125.790063		6.012793		5.390089		30.625087		86.136359		-7.925886		1.771910		-127.604689		21.714437		4.332614		24.494359		-53.934934		-2.835006		2.045346		13.090974		6.169397		-6.154907		54.794806		-27.181646		4.744140		56.378242		117.871414		-12.450206		-17.179889		-35.593332		58.345419		-28.335517		15.140035		70.074284		138.172807		-24.890697		-13.897733		-24.637360		
3.145682		-1.492118		2.519898		92.540677		-0.013431		0.454313		0.465974		90.002107		-3.154336		3.441979		-126.432735		5.968549		5.656121		30.659141		86.426991		-8.278230		1.718912		-128.149477		22.003526		4.899963		24.663003		-54.261655		-3.151494		2.060622		13.155616		6.415995		-6.131829		57.296440		-27.439429		6.179692		55.971803		117.553264		-12.372445		-17.283125		-35.869920		61.386771		-28.086320		17.061735		69.487353		138.291334		-24.967657		-13.903068		-24.953457		
3.148510		-1.751282		2.941679		92.415908		-0.013026		0.451375		0.465569		90.135474		-3.247387		3.748818		-127.064752		6.125267		5.889074		30.720162		86.305910		-8.668458		1.588095		-128.649492		22.388729		5.773814		24.947816		-54.931069		-3.546704		2.059735		12.723515		6.945401		-6.252484		59.549412		-27.690924		7.512930		55.799034		116.656074		-12.930185		-17.642719		-36.660038		64.417465		-27.593211		19.082045		68.773275		138.021185		-25.959107		-13.628184		-25.820626		
3.151338		-1.753241		2.823627		92.364536		-0.012994		0.447286		0.465066		90.857892		-3.401812		3.819933		-127.686730		6.090007		6.409669		30.734590		86.978310		-9.033456		1.627513		-129.251967		22.489610		6.087267		25.029778		-55.007720		-3.589789		2.046433		13.005090		6.990628		-6.255600		61.842008		-27.724694		8.508621		55.697217		116.786675		-12.552836		-17.720555		-36.603511		66.927933		-27.272547		20.233355		68.506847		138.296846		-25.614305		-13.869034		-25.761073		
3.154167		-1.761095		2.662713		92.316014		-0.012861		0.443175		0.464646		91.654775		-3.523156		3.918142		-128.297301		6.252722		7.070275		30.752376		87.682943		-9.439633		1.637761		-129.837413		22.612777		6.535892		25.134407		-54.984196		-3.652060		2.069846		13.626838		7.009561		-6.229939		64.334201		-27.701233		9.668748		55.089374		116.917083		-12.099222		-17.652530		-36.552831		69.705928		-26.825016		21.636020		67.715379		138.591331		-25.164659		-14.023789		-25.693071		
3.156995		-1.774409		2.546594		92.273084		-0.012795		0.439332		0.464185		92.368177		-3.668424		4.072854		-128.874900		6.529845		7.765478		30.763995		88.320832		-9.801247		1.705252		-130.386775		22.750553		6.982301		25.220753		-55.038758		-3.716371		2.090916		14.052273		7.055995		-6.215985		66.674929		-27.546139		10.485544		54.614387		117.077473		-11.795772		-17.573300		-36.528539		72.242580		-26.220260		22.697961		67.092006		138.833415		-24.845621		-14.150400		-25.661512		
3.159823		-1.816633		2.489746		92.288904		-0.012731		0.435691		0.463803		92.990281		-3.885680		4.251474		-129.440511		6.875789		8.660368		30.776975		88.867948		-10.090043		1.804793		-130.873996		22.905561		7.591443		25.325629		-55.155505		-3.781716		2.063810		14.320635		7.219781		-6.256621		69.002790		-27.473649		11.445284		54.109609		117.320120		-11.506444		-17.534062		-36.539084		74.876266		-25.634240		23.912704		66.358196		139.097373		-24.604566		-14.325130		-25.689242		
3.162652		-2.118882		2.945753		92.490624		-0.012851		0.433331		0.463732		93.068058		-4.325414		4.656912		-130.018169		7.817776		10.257015		30.835881		88.615012		-10.091927		1.778662		-131.204320		23.416928		9.268046		25.737228		-55.881547		-3.984725		1.901029		14.106557		7.891323		-6.529075		71.405784		-27.768088		12.857167		53.402152		117.502724		-11.922884		-17.817567		-37.414871		78.185037		-24.777628		26.152560		64.741037		138.873200		-25.868235		-14.558469		-26.663793		
3.165480		-2.092987		2.637861		92.345661		-0.012547		0.429406		0.463289		93.920351		-4.430618		4.795543		-130.510884		7.923685		10.921715		30.848501		89.419470		-10.601148		1.818653		-131.707647		23.594046		9.502460		25.822561		-55.727030		-4.105137		1.958603		14.654089		7.873445		-6.536389		73.526005		-27.386906		13.349796		52.975292		117.663904		-11.606641		-17.629760		-37.405485		80.435595		-24.167509		26.916405		64.178106		139.019357		-25.516012		-14.669022		-26.589907		
3.168308		-2.191214		2.465956		92.377409		-0.012492		0.425868		0.463188		94.633687		-4.732684		5.025293		-131.009164		8.090616		12.123645		30.879469		89.981087		-10.818219		1.923188		-132.098809		23.868830		10.290569		26.011628		-55.738752		-4.239522		1.827690		14.784424		8.245238		-6.673139		75.840557		-27.336013		14.446141		52.340628		118.122839		-11.154127		-17.495786		-37.551714		83.161075		-23.688925		28.417024		63.241618		139.194439		-25.371972		-14.968213		-26.724623		
3.171136		-2.252108		2.199174		92.279981		-0.012128		0.422377		0.462929		95.430877		-4.913292		5.220492		-131.459911		8.392306		12.957948		30.902583		90.611374		-11.206507		1.973243		-132.492021		24.193970		10.819447		26.148515		-55.645011		-4.434133		1.769542		15.225599		8.350159		-6.687976		77.949139		-26.894237		14.955184		51.727256		118.401499		-10.866560		-17.248657		-37.683319		85.473838		-22.943583		29.225047		62.376247		139.238960		-25.248275		-14.996711		-26.837297		
